<?xml version="1.0" encoding="utf-8"?>
<!-- Generator: Adobe Illustrator 25.2.3, SVG Export Plug-In . SVG Version: 6.00 Build 0)  -->
<svg version="1.1" id="svg" xmlns="http://www.w3.org/2000/svg" xmlns:xlink="http://www.w3.org/1999/xlink" x="0px" y="0px"
	 viewBox="0 0 400 399.6" style="enable-background:new 0 0 400 399.6;" xml:space="preserve">
<style type="text/css">
	.st0{fill-rule:evenodd;clip-rule:evenodd;fill:#F45C24;}
	.st1{fill-rule:evenodd;clip-rule:evenodd;fill:#FCBCA2;}
	.st2{fill-rule:evenodd;clip-rule:evenodd;fill:#F49C7C;}
	.st3{fill-rule:evenodd;clip-rule:evenodd;fill:#FCAC8C;}
	.st4{fill-rule:evenodd;clip-rule:evenodd;fill:#FCE0D0;}
	.st5{fill-rule:evenodd;clip-rule:evenodd;fill:#FCECDF;}
	.st6{fill-rule:evenodd;clip-rule:evenodd;fill:#FCD4C4;}
	.st7{fill-rule:evenodd;clip-rule:evenodd;fill:#FCE4DC;}
</style>
<path id="path0" class="st0" d="M146.1,93.5c-10.7,1.1-12.6,2.4-37.8,27.4c-50.4,49.9-75.3,74.9-76.7,77c-3,4.3-5,9.4-5.6,14.3
	l-0.3,1.9l1.3-2.9c0.7-1.6,2-4,2.9-5.3c2.3-3.3,99.5-100.9,103-103.4c11.2-7.8,26.2-7,36.8,2.2c1.6,1.3,9.2,8.9,16.9,16.7l14,14.3
	l16-15.9c19.7-19.7,21.8-21.1,31.7-22.4c11.2-1.4,17.4,1.6,30.5,14.5c34.3,33.8,92.4,92.9,93.9,95.5c1.8,3.1,2,2.9,0.8-0.7
	c-1.2-3.5-3.2-7.2-5.2-9.9c-2.1-2.7-93.5-94.5-96.3-96.7c-9.6-7.6-24.2-9-35.1-3.5c-4.4,2.2-7.1,4.5-21.4,18.9
	c-7.9,7.9-14.5,14.3-14.7,14.3s-6.8-6.5-14.7-14.3c-7.9-7.9-15.4-15.1-16.7-16.1C163,94.9,154.3,92.7,146.1,93.5 M143.5,102.5
	c-7.1,1.9-5.1,0-60.6,55.8l-49.3,49.5l-1.6,3.3c-4.1,8.3-3.8,17.2,0.8,25c2.6,4.4,46.1,47.4,49.9,49.4c7.7,3.9,16,4,23.3,0.3
	c3.7-1.8,7-4.9,24.3-22.5l17.8-18.1l-4.5-4.6c-8.8-8.9-11.5-15.5-10.5-25.4c0.9-9.5,0.9-9.4,35.9-44.7l29.9-30.1L182.7,124
	c-16.7-16.7-18-17.9-22-19.9C155.9,101.7,149,101.1,143.5,102.5 M245.4,102.4c-6.2,1.7-6.5,1.9-25.5,20.8l-17.4,17.4l5.3,5.4
	c7.7,7.9,9.9,12.7,9.9,21.5c0,8.8-2.2,13.6-9.9,21.5l-5.3,5.4l24.7,24.6l24.7,24.6l30.4-30.6c30.4-30.6,30.4-30.6,32.1-34
	c5.1-10.4,3.5-20.7-4.8-29.9c-10.2-11.4-42.8-42.9-46-44.6C258.2,101.8,250.8,100.9,245.4,102.4 M195.7,147.3
	c-13.2,13.5-13.2,26.7,0,40.2l5.1,5.2l4.3-4.2c14.3-14.2,14.3-28.1-0.2-42.4l-4.1-4L195.7,147.3 M162.8,180.3
	c-27.4,27.5-27.4,27.5-27.3,38.3c0,7.9,2.3,12.6,9.8,20l4.9,4.9l24.5-24.5l24.5-24.5l-5.2-5.5c-7.2-7.5-9.5-12.1-10-20
	c-0.2-3.5,0.5-9.1,1.5-10.9C186.1,156.9,185.9,157.1,162.8,180.3 M318.1,158.4c2.7,7.6,1.4,17.3-3.2,24.4
	c-0.9,1.5-12.3,13.2-31.4,32.3c-16.5,16.5-29.9,30.2-29.9,30.4c0,1.4,38.3,38.5,41.4,40.1c9.2,4.7,19.6,3.8,27.5-2.4
	c2.1-1.6,18.4-17.9,37.8-37.7c10.4-10.6,11.9-13.5,11.9-22.7c0-5.7-0.8-8.5-3.4-13.1C367.4,207.3,317.5,156.9,318.1,158.4
	 M176.2,220.8L152,245.3l0.8,1.1c2,2.8,32.9,32.9,35,34.1c8.1,4.7,18.1,4.7,26.1,0c1.5-0.9,7.4-6.4,19.2-18.2l17-16.9l-24.6-24.6
	c-13.5-13.5-24.7-24.6-24.8-24.6C200.5,196.2,189.5,207.3,176.2,220.8"/>
<path id="path2" class="st1" d="M121.8,113l-8,8.1l8.1-8c4.5-4.4,8.1-8.1,8.1-8.1C130.1,104.7,129.3,105.5,121.8,113 M115.7,113.2
	l-3.1,3.2l3.2-3.1c3-2.9,3.4-3.3,3.1-3.3C118.9,110,117.5,111.4,115.7,113.2 M205.2,146.4c1.9,1.9,3.6,3.5,3.7,3.5s-1.4-1.6-3.3-3.5
	c-1.9-1.9-3.6-3.5-3.7-3.5C201.7,142.9,203.2,144.5,205.2,146.4 M64.2,164.4l-3.3,3.4l3.4-3.3c3.2-3.1,3.6-3.5,3.3-3.5
	C67.5,161,66,162.5,64.2,164.4 M159.9,182.8l-9.2,9.3l9.3-9.2c8.7-8.6,9.5-9.4,9.2-9.4C169.1,173.5,164.9,177.7,159.9,182.8
	 M347.3,175.2c0,0.1,3.5,3.5,7.7,7.7l7.7,7.6l-7.6-7.7C348.1,175.6,347.3,174.9,347.3,175.2 M341.4,181.1c0,0.1,3.5,3.5,7.7,7.7
	l7.7,7.6l-7.6-7.7C342.2,181.5,341.4,180.8,341.4,181.1 M203.6,190.1l-2.7,2.8l2.8-2.7c1.6-1.5,2.8-2.8,2.8-2.8
	C206.5,187,206.1,187.4,203.6,190.1 M195.3,198.3l-3.9,4l4-3.9c3.7-3.6,4.2-4.1,3.9-4.1C199.3,194.3,197.5,196.1,195.3,198.3
	 M38.7,202.3c-1.6,1.6-2.8,2.9-2.7,2.9c0.1,0,1.5-1.3,3.1-2.9c1.6-1.6,2.8-2.9,2.7-2.9C41.7,199.4,40.3,200.7,38.7,202.3"/>
<path id="path3" class="st2" d="M215.2,115.8l-14.3,14.4l14.4-14.3c7.9-7.9,14.4-14.4,14.4-14.4
	C229.7,101.2,228.5,102.4,215.2,115.8 M250.4,101.6c0.7,0.1,1.8,0.1,2.5,0c0.7-0.1,0.1-0.2-1.3-0.2
	C250.2,101.5,249.6,101.5,250.4,101.6 M182.6,112.1c5.7,5.7,10.5,10.4,10.6,10.4c0.1,0-4.5-4.7-10.2-10.4
	c-5.7-5.7-10.5-10.4-10.6-10.4S176.9,106.4,182.6,112.1 M216.1,120.3l-15.7,15.8L216.1,120.3c14.8-14.5,16.1-15.8,15.8-15.8
	C231.9,104.5,224.8,111.6,216.1,120.3 M179.9,114.9c5.5,5.5,10.1,10,10.2,10s-4.3-4.5-9.8-10c-5.5-5.5-10.1-10-10.2-10
	C170,104.9,174.4,109.4,179.9,114.9 M218.5,124.2L202,140.8L218.5,124.2c9.2-9,16.7-16.4,16.7-16.5
	C235.2,107.4,233.8,108.8,218.5,124.2 M176.7,118c5.5,5.5,10.1,10,10.2,10s-4.3-4.5-9.8-10c-5.5-5.5-10.1-10-10.2-10
	S171.2,112.5,176.7,118 M309.1,137c12.5,12.5,22.8,22.7,22.9,22.7s-10-10.2-22.5-22.7c-12.5-12.5-22.8-22.7-22.9-22.7
	S296.6,124.5,309.1,137 M306.3,139.8c12.5,12.5,22.8,22.7,22.9,22.7s-10-10.2-22.5-22.7c-12.5-12.5-22.8-22.7-22.9-22.7
	C283.7,117,293.8,127.3,306.3,139.8 M96.7,132.2l-9.6,9.7l9.7-9.6c9-8.9,9.9-9.8,9.6-9.8C106.4,122.5,102,126.9,96.7,132.2
	 M75.9,158.9l-22.5,22.6L75.9,158.9c12.6-12.3,22.7-22.5,22.7-22.5C98.7,136.1,96.9,137.8,75.9,158.9 M79.3,161.8l-22.7,22.8
	L79.3,161.8c12.7-12.4,22.9-22.7,22.9-22.7C102.2,138.8,100.4,140.6,79.3,161.8 M187.7,151.8l-10.4,10.5l10.5-10.4
	c9.7-9.7,10.7-10.6,10.4-10.6C198.1,141.3,193.4,146.1,187.7,151.8 M197.9,144.8l-2.5,2.6l2.6-2.5c1.5-1.4,2.6-2.6,2.6-2.6
	C200.6,142,200.2,142.3,197.9,144.8 M317.6,157.3c0,0.2,2.1,2.2,4.6,4.6l4.6,4.3l-4.5-4.6C317.7,157,317.5,156.8,317.6,157.3
	 M44,184.6l-10.6,10.7l10.7-10.6c5.9-5.8,10.7-10.6,10.7-10.7C54.8,173.7,53.8,174.7,44,184.6 M285.2,210.1l-24.7,24.8L285.2,210.1
	c23.2-22.9,25.1-24.8,24.8-24.8C309.9,185.3,298.7,196.4,285.2,210.1 M291.4,206.9l-20.8,20.9l20.9-20.8c19.4-19.3,21.1-21,20.8-21
	C312.3,186.1,302.9,195.4,291.4,206.9 M222.6,218c12.2,12.2,22.2,22.2,22.4,22.2s-9.8-10-22-22.2c-12.2-12.2-22.2-22.2-22.3-22.2
	C200.5,195.9,210.4,205.8,222.6,218 M228.9,221.2c12.4,12.4,22.6,22.5,22.7,22.5s-9.9-10.1-22.4-22.5
	c-12.4-12.4-22.6-22.5-22.7-22.5S216.5,208.7,228.9,221.2 M167.9,228.8c-16,16-16.4,16.5-15.7,17.2c0.7,0.7,0.7,0.7,0.2,0
	c-0.5-0.6,0.9-2.1,15.9-17.2c9-9,16.4-16.4,16.2-16.4S177,219.7,167.9,228.8 M163.1,230.5l-13,13l-4.4-4.3l-4.4-4.3l4.4,4.5l4.4,4.5
	l13.2-13.2c7.3-7.3,13.1-13.2,13-13.2S170.3,223.3,163.1,230.5 M141.4,238.4c1.2,1.2,2.2,2.2,2.3,2.2c0.1,0-0.8-1-1.9-2.2
	c-1.2-1.2-2.2-2.2-2.3-2.2C139.4,236.2,140.3,237.2,141.4,238.4 M359.5,246.3l-6.9,7l7-6.9c3.8-3.8,7-6.9,7-7
	C366.5,239.2,365.8,239.9,359.5,246.3 M138.9,254.8l-9.4,9.5l9.5-9.4c8.8-8.7,9.7-9.6,9.4-9.6C148.3,245.3,144.1,249.5,138.9,254.8"
	/>
<path id="path4" class="st3" d="M277.7,111.2c3.2,3.2,6,5.9,6.1,5.9c0.1,0-2.4-2.6-5.7-5.9c-3.2-3.2-6-5.9-6.1-5.9
	C271.9,105.3,274.5,107.9,277.7,111.2 M109.5,119.5l-3.1,3.2l3.2-3.1c1.8-1.7,3.2-3.2,3.2-3.2C112.8,116.1,112.4,116.5,109.5,119.5
	 M106.1,128.6c-4.2,4.2-7.6,7.6-7.4,7.6c0.1,0,3.6-3.4,7.8-7.6c4.2-4.2,7.6-7.6,7.4-7.6C113.9,121,110.3,124.4,106.1,128.6
	 M196.5,126.1c1.9,1.9,3.6,3.5,3.7,3.5c0.1,0-1.4-1.6-3.3-3.5c-1.9-1.9-3.6-3.5-3.7-3.5C193.1,122.5,194.6,124.1,196.5,126.1
	 M192.8,134.1c3.3,3.3,6.2,6.1,6.3,6.1s-2.5-2.7-5.9-6.1s-6.2-6.1-6.3-6.1S189.5,130.7,192.8,134.1 M194,148.7l-1.4,1.5l1.5-1.4
	c0.8-0.7,1.5-1.4,1.5-1.5C195.5,147,195.2,147.3,194,148.7 M177.3,165.3c-4.5,4.5-8.1,8.2-8,8.2c0.1,0,3.9-3.7,8.4-8.2
	c4.5-4.5,8.1-8.2,8-8.2S181.8,160.7,177.3,165.3 M332,159.9c0,0.1,3.5,3.5,7.7,7.7l7.7,7.6l-7.6-7.7
	C332.8,160.3,332,159.6,332,159.9 M333.8,173.5c4.1,4.1,7.5,7.5,7.6,7.5c0.1,0-3.2-3.4-7.2-7.5c-4.1-4.1-7.5-7.5-7.6-7.5
	C326.4,166.1,329.7,169.4,333.8,173.5 M57.7,170.9l-3.1,3.2l3.2-3.1c1.8-1.7,3.2-3.2,3.2-3.2C61,167.4,60.6,167.9,57.7,170.9
	 M49.1,192l-7.4,7.5l7.5-7.4c4.2-4.1,7.5-7.5,7.5-7.5C56.7,184.3,56,185,49.1,192 M196.7,189c2,2,3.8,3.7,3.9,3.7
	c0.1,0-1.5-1.7-3.5-3.7c-2-2-3.8-3.7-3.9-3.7C193.1,185.3,194.7,186.9,196.7,189 M204.2,196.4c1.2,1.2,2.2,2.2,2.3,2.2
	c0.1,0-0.8-1-1.9-2.2c-1.2-1.2-2.2-2.2-2.3-2.2C202.1,194.3,203,195.3,204.2,196.4 M183.8,209.8c-4.2,4.2-7.6,7.6-7.4,7.6
	s3.6-3.4,7.8-7.6c4.2-4.2,7.6-7.6,7.4-7.6C191.5,202.1,188,205.6,183.8,209.8 M261.8,236.5l-8.8,8.9l8.9-8.8c8.3-8.2,9.1-9,8.8-9
	C270.7,227.6,266.7,231.6,261.8,236.5 M247.3,242.7c1.4,1.4,2.6,2.5,2.7,2.5c0.1,0-0.9-1.1-2.3-2.5c-1.4-1.4-2.6-2.5-2.7-2.5
	C244.9,240.2,245.9,241.3,247.3,242.7 M145.9,242.9c1.3,1.3,2.4,2.4,2.5,2.4c0.1,0-0.9-1.1-2.1-2.4c-1.3-1.3-2.4-2.4-2.5-2.4
	S144.7,241.6,145.9,242.9"/>
<path id="path5" class="st4" d="M128.3,112.4l-3.9,4l4-3.9c3.7-3.6,4.2-4.1,3.9-4.1C132.2,108.4,130.4,110.2,128.3,112.4
	 M270.8,110.2c0.7,0.8,1.4,1.4,1.5,1.4c0.1,0-0.4-0.6-1.1-1.4c-0.7-0.8-1.4-1.4-1.5-1.4S270.1,109.4,270.8,110.2 M75.3,153.2
	l-1.5,1.7l1.7-1.5c1.5-1.4,1.8-1.8,1.5-1.8C76.9,151.5,76.2,152.3,75.3,153.2 M355.9,189.8c2,2,3.8,3.7,3.9,3.7s-1.5-1.7-3.5-3.7
	c-2-2-3.8-3.7-3.9-3.7S353.9,187.7,355.9,189.8 M208.7,187.7l-1.2,1.3l1.3-1.2c0.7-0.6,1.3-1.2,1.3-1.3
	C210.1,186.3,209.7,186.5,208.7,187.7 M145.1,194.8l-4.3,4.4l4.4-4.3c2.4-2.4,4.4-4.4,4.4-4.4C149.7,190.2,149.1,190.7,145.1,194.8
	 M56.7,261.5c2,2,3.8,3.7,3.9,3.7c0.1,0-1.5-1.7-3.5-3.7c-2-2-3.8-3.7-3.9-3.7C53.1,257.8,54.7,259.5,56.7,261.5 M228.9,266.7
	l-4.5,4.6l4.6-4.5c2.5-2.5,4.6-4.6,4.6-4.6C233.6,262,233.1,262.5,228.9,266.7 M178.3,272.5c2,2,3.8,3.7,3.9,3.7
	c0.1,0-1.5-1.7-3.5-3.7c-2-2-3.8-3.7-3.9-3.7S176.3,270.5,178.3,272.5 M279.9,272.5c2,2,3.8,3.7,3.9,3.7s-1.5-1.7-3.5-3.7
	c-2-2-3.8-3.7-3.9-3.7S277.8,270.5,279.9,272.5 M327.3,278.9l-2.5,2.6l2.6-2.5c1.5-1.4,2.6-2.6,2.6-2.6
	C330.1,276.1,329.7,276.4,327.3,278.9"/>
<path id="path6" class="st5" d="M280.6,108.2c3.1,3.1,5.8,5.7,5.9,5.7s-2.4-2.6-5.5-5.7c-3.1-3.1-5.8-5.7-5.9-5.7
	S277.5,105.1,280.6,108.2 M273.6,112.8c0,0.1,0.6,0.6,1.3,1.3l1.3,1.2L275,114C273.9,112.8,273.6,112.5,273.6,112.8 M113,127.7
	l-11.4,11.5l11.5-11.4c6.3-6.3,11.5-11.4,11.5-11.5C124.6,116.1,123.6,117.1,113,127.7 M291.2,130.6c7,7,12.8,12.7,12.9,12.7
	s-5.5-5.7-12.5-12.7c-7-7-12.8-12.7-12.9-12.7S284.2,123.6,291.2,130.6 M195,130.4c3,3,5.6,5.5,5.7,5.5c0.1,0-2.3-2.5-5.3-5.5
	c-3-3-5.6-5.5-5.7-5.5S191.9,127.3,195,130.4 M205.9,144.5c2.1,2.2,4,3.9,4.1,3.9s-1.6-1.8-3.7-3.9c-2.1-2.2-4-3.9-4.1-3.9
	C202.1,140.6,203.8,142.3,205.9,144.5 M82,146.4c-2.6,2.6-4.6,4.7-4.5,4.7s2.3-2.1,4.9-4.7c2.6-2.6,4.6-4.7,4.5-4.7
	S84.6,143.9,82,146.4 M307.7,147c0.7,0.8,1.4,1.4,1.5,1.4s-0.4-0.6-1.1-1.4c-0.7-0.8-1.4-1.4-1.5-1.4
	C306.5,145.7,307,146.3,307.7,147 M163.4,176.5l-13.9,14l14-13.9c7.7-7.7,14-14,14-14C177.5,162.3,176.3,163.5,163.4,176.5
	 M340.4,174.3c6.3,6.3,11.5,11.4,11.6,11.4c0.1,0-4.9-5.1-11.2-11.4c-6.3-6.3-11.5-11.4-11.6-11.4
	C329.2,162.9,334.2,168,340.4,174.3 M43.2,192L33,202.3l10.3-10.2c9.6-9.5,10.5-10.4,10.2-10.4C53.4,181.7,48.8,186.4,43.2,192
	 M194.4,189.4c1.8,1.8,3.4,3.3,3.5,3.3c0.1,0-1.3-1.5-3.1-3.3c-1.8-1.8-3.4-3.3-3.5-3.3C191.1,186.1,192.5,187.6,194.4,189.4
	 M204.8,191.6l-2.7,2.8l2.8-2.7c1.6-1.5,2.8-2.8,2.8-2.8C207.7,188.6,207.3,189,204.8,191.6 M192.4,204l-8,8.1l8.1-8
	c4.5-4.4,8.1-8.1,8.1-8.1C200.6,195.7,199.9,196.4,192.4,204 M255.9,239.7l-4.5,4.6l4.6-4.5c4.3-4.2,4.8-4.7,4.5-4.7
	C260.5,235.1,258.4,237.1,255.9,239.7 M44.4,249.2c4.7,4.7,8.7,8.6,8.8,8.6s-3.7-3.9-8.4-8.6c-4.7-4.7-8.7-8.6-8.8-8.6
	C35.8,240.6,39.6,244.4,44.4,249.2 M242,253.5c-4.5,4.5-8.1,8.2-8,8.2s3.9-3.7,8.4-8.2c4.5-4.5,8.1-8.2,8-8.2S246.5,249,242,253.5
	 M264.6,257.2c6.4,6.4,11.7,11.6,11.8,11.6s-5-5.2-11.4-11.6c-6.4-6.4-11.7-11.6-11.8-11.6S258.2,250.9,264.6,257.2 M163.4,257.6
	c6.1,6.1,11.3,11.2,11.4,11.2c0.1,0-4.8-5-11-11.2c-6.1-6.1-11.3-11.2-11.4-11.2S157.2,251.5,163.4,257.6 M341.4,264.7
	c-6.1,6.1-11.1,11.2-11,11.2s5.2-5,11.4-11.2c6.1-6.1,11.1-11.2,11-11.2S347.6,258.5,341.4,264.7 M120.6,273.4l-8.8,8.9l8.9-8.8
	c4.9-4.9,8.9-8.9,8.9-8.9C129.7,264.3,128.8,265.1,120.6,273.4"/>
<path id="path7" class="st6" d="M122.2,106.7l-3.3,3.4l3.4-3.3c3.2-3.1,3.6-3.5,3.3-3.5C125.6,103.3,124,104.9,122.2,106.7
	 M70.6,157.9l-3.1,3.2l3.2-3.1c1.8-1.7,3.2-3.2,3.2-3.2C74,154.5,73.5,154.9,70.6,157.9 M183.9,167.4c0,1.1,0.1,1.5,0.2,0.9
	c0.1-0.6,0.1-1.5,0-2C184,165.9,183.9,166.3,183.9,167.4 M185.8,167.4c0,0.9,0.1,1.2,0.2,0.7c0.1-0.5,0.1-1.2,0-1.6
	C185.9,166.2,185.8,166.6,185.8,167.4 M207.5,186.2l-1.2,1.3l1.3-1.2c0.7-0.6,1.3-1.2,1.3-1.3C208.9,184.7,208.6,185,207.5,186.2
	 M364.4,192.3c1.1,1.1,2,2,2.1,2s-0.7-0.9-1.7-2c-1.1-1.1-2-2-2.1-2S363.3,191.2,364.4,192.3 M146.3,196.3l-4.3,4.4l4.4-4.3
	c2.4-2.4,4.4-4.4,4.4-4.4C150.8,191.8,150.3,192.2,146.3,196.3 M364,197.8c2.4,2.4,4.4,4.3,4.5,4.3s-1.7-1.9-4.1-4.3
	c-2.4-2.4-4.4-4.3-4.5-4.3S361.6,195.4,364,197.8 M361,200.8c2.5,2.5,4.6,4.5,4.7,4.5s-1.8-2-4.3-4.5c-2.5-2.5-4.6-4.5-4.7-4.5
	S358.6,198.3,361,200.8 M60.6,265.4c0,0.1,3.5,3.5,7.7,7.7l7.7,7.6l-7.6-7.7C61.4,265.8,60.6,265.1,60.6,265.4 M221.4,274.1
	c-1.6,1.6-2.8,2.9-2.7,2.9s1.5-1.3,3.1-2.9c1.6-1.6,2.8-2.9,2.7-2.9C224.4,271.2,223,272.5,221.4,274.1 M286.3,279
	c1.5,1.5,2.8,2.7,2.9,2.7c0.1,0-1-1.2-2.5-2.7c-1.5-1.5-2.8-2.7-2.9-2.7S284.8,277.5,286.3,279"/>
<path id="path8" class="st7" d="M277.1,116.4c0.7,0.8,1.4,1.4,1.5,1.4s-0.4-0.6-1.1-1.4c-0.7-0.8-1.4-1.4-1.5-1.4
	S276.4,115.7,277.1,116.4"/>
</svg>
